<?xml version="1.0" encoding="UTF-8" standalone="no"?>
<svg
   xmlns:dc="http://purl.org/dc/elements/1.1/"
   xmlns:cc="http://creativecommons.org/ns#"
   xmlns:rdf="http://www.w3.org/1999/02/22-rdf-syntax-ns#"
   xmlns:svg="http://www.w3.org/2000/svg"
   xmlns="http://www.w3.org/2000/svg"
   xmlns:sodipodi="http://sodipodi.sourceforge.net/DTD/sodipodi-0.dtd"
   xmlns:inkscape="http://www.inkscape.org/namespaces/inkscape"
   enable-background="new 0 0 30 30"
   height="30px"
   id="Github"
   version="1.1"
   viewBox="0 0 30 30"
   width="30px"
   xml:space="preserve"
   sodipodi:docname="github.svg"
   inkscape:version="0.92.4 (5da689c313, 2019-01-14)"><metadata
     id="metadata8"><rdf:RDF><cc:Work
         rdf:about=""><dc:format>image/svg+xml</dc:format><dc:type
           rdf:resource="http://purl.org/dc/dcmitype/StillImage" /></cc:Work></rdf:RDF></metadata><defs
     id="defs6" /><sodipodi:namedview
     pagecolor="#ffffff"
     bordercolor="#666666"
     borderopacity="1"
     objecttolerance="10"
     gridtolerance="10"
     guidetolerance="10"
     inkscape:pageopacity="0"
     inkscape:pageshadow="2"
     inkscape:window-width="1366"
     inkscape:window-height="745"
     id="namedview4"
     showgrid="false"
     inkscape:zoom="7.8666667"
     inkscape:cx="15"
     inkscape:cy="15"
     inkscape:window-x="1912"
     inkscape:window-y="234"
     inkscape:window-maximized="1"
     inkscape:current-layer="Github" /><path
     clip-rule="evenodd"
     d="M19,30h-3.996h-4c0,0,0.011-2.372,0-4  c-5.473,1.178-7-3-7-3c-1-2-2-3-2-3c-2-1.188,0-1,0-1c2,0,3,2,3,2c1.755,2.981,4.878,2.501,6,2c0-1,0.438-2.512,1-3  C7.636,19.508,4,17,4,12s1.004-6,2.004-7C5.802,4.507,4.965,2.685,6.035,0C6.035,0,8,0,10,3c0.991-0.991,4-1,5.001-1  C16,2,19.009,2.009,20,3c2-3,3.969-3,3.969-3c1.07,2.685,0.233,4.507,0.031,5c1,1,2,2,2,7s-3.632,7.508-8,8c0.562,0.488,1,2.21,1,3  V30z"
     fill="#141313"
     fill-rule="evenodd"
     id="Cat" /><path
     style="fill:#f2f2f2;stroke-width:0.12711865"
     d="m 11.059322,27.984131 v -1.96502 l -1.2397065,0.07553 C 7.0175053,26.265348 5.3241929,25.33148 4.0162697,22.894068 3.1899385,21.354139 2.4318208,20.309382 1.7137394,19.720969 1.193894,19.294994 1.145877,19.216721 1.3383345,19.109016 c 0.3083317,-0.172551 1.3464906,-0.02714 1.9294058,0.270238 0.4894118,0.249679 1.6898868,1.426013 1.6898868,1.655903 0,0.261904 1.3420949,1.572763 1.89935,1.855146 0.9308608,0.471703 1.980915,0.630401 3.0159803,0.455814 0.4813556,-0.08119 0.9340716,-0.187515 1.0060356,-0.236275 0.07196,-0.04876 0.197758,-0.460478 0.279542,-0.914927 0.08179,-0.454449 0.317589,-1.15519 0.524009,-1.557203 0.370101,-0.72079 0.371468,-0.730945 0.0985,-0.731823 -0.642532,-0.0021 -2.5152909,-0.555214 -3.5183331,-1.03919 C 6.8505184,18.185302 5.4481886,16.825885 4.8430504,15.551681 4.1891022,14.174701 4.0305103,13.164297 4.1100009,10.881356 4.2074711,8.0820397 4.6076411,6.6550524 5.622419,5.4881443 L 6.0564892,4.9890005 5.8619212,4.4711952 C 5.7341968,4.1312814 5.6655369,3.4948388 5.6620664,2.6186441 5.6565075,1.2151719 5.8569325,0.2405548 6.1763117,0.11799751 6.2799375,0.07823254 6.7289236,0.22499326 7.1740585,0.44413246 7.9862408,0.84396844 8.9074428,1.6326256 9.6048658,2.5251891 L 9.9788136,3.0037681 10.495795,2.7458767 C 11.423878,2.2829118 12.624879,2.1145839 15,2.1145839 c 2.372036,0 3.572856,0.1679022 4.504205,0.6297914 l 0.516981,0.25639 0.438027,-0.5406369 c 0.770437,-0.9509153 1.549349,-1.61360152 2.373484,-2.01932173 0.44142,-0.21731001 0.887365,-0.36257413 0.990991,-0.32280916 0.325036,0.1247279 0.519827,1.09740379 0.513516,2.56420589 -0.0042,0.9793261 -0.06546,1.5328382 -0.204397,1.8472973 -0.19694,0.4457331 -0.195196,0.4526536 0.240233,0.9533898 1.015816,1.1681761 1.413424,2.5849932 1.514995,5.3984655 0.08241,2.282743 -0.07512,3.289107 -0.731085,4.670325 -0.605138,1.274204 -2.007469,2.633621 -3.419662,3.315018 -1.003219,0.484062 -2.87583,1.037124 -3.518593,1.03919 l -0.277069,8.89e-4 0.299296,0.540255 c 0.614747,1.109675 0.699756,1.814557 0.699756,5.802248 v 3.699872 H 15 11.059322 Z"
     id="path10"
     inkscape:connector-curvature="0" /><path
     style="opacity:1;vector-effect:none;fill:#ececec;fill-opacity:1;stroke-width:0.01615915;stroke-linecap:butt;stroke-linejoin:miter;stroke-miterlimit:4;stroke-dasharray:none;stroke-dashoffset:0;stroke-opacity:1"
     d="M 11.084746,27.918423 V 25.93854 L 9.9724577,26.02429 C 7.1251354,26.243809 5.4099944,25.273738 3.9159696,22.598784 3.1539685,21.234472 2.301182,20.083506 1.7289068,19.647011 1.4925062,19.4667 1.3305077,19.268333 1.3689103,19.206196 c 0.1038525,-0.168037 0.6903807,-0.137032 1.4012471,0.07407 0.6623928,0.19671 1.799,1.169378 2.142354,1.833351 0.2761107,0.53394 1.5412862,1.65586 2.1996801,1.950611 0.4089699,0.183089 0.9526951,0.28782 1.6844187,0.324445 1.101056,0.05511 2.2305268,-0.139468 2.0937908,-0.36071 -0.04119,-0.06665 -0.01837,-0.121186 0.05071,-0.121186 0.06908,0 0.188023,-0.300318 0.264309,-0.667373 0.07629,-0.367055 0.280553,-0.973371 0.453928,-1.347369 0.173374,-0.373997 0.315026,-0.745819 0.314782,-0.826271 -2.42e-4,-0.08045 -0.557978,-0.276936 -1.239407,-0.436632 C 7.6878376,18.915081 5.4970138,17.198521 4.6113266,14.831308 4.2213555,13.789018 4.0875385,12.238764 4.2187052,10.282838 4.3860912,7.7868181 4.7418954,6.6245173 5.6707993,5.5393021 L 6.1114328,5.024521 5.9135921,4.3496221 C 5.7667951,3.8488501 5.7298276,3.2941483 5.7703095,2.1996498 5.8313919,0.54818348 5.9814332,0.09234461 6.4208776,0.22316589 7.2253554,0.46265656 7.9501539,0.95714372 8.9250902,1.9316421 L 10.00696,3.013026 10.710721,2.7337844 c 1.027503,-0.4076972 2.105568,-0.5456183 4.251143,-0.5438654 2.298546,0.00188 3.450128,0.1530321 4.368266,0.5733699 l 0.689713,0.3157609 0.455887,-0.5416435 c 0.81475,-0.9680137 1.588837,-1.62028217 2.405829,-2.02722322 0.704622,-0.350969 0.823537,-0.3765157 0.987836,-0.21221777 0.419169,0.41917067 0.563619,2.74220969 0.246274,3.96058269 l -0.189417,0.7272171 0.569414,0.7734939 c 0.939158,1.2757547 1.33669,3.0525417 1.332964,5.957745 -0.0023,1.754655 -0.219271,2.775691 -0.841756,3.960282 -0.612652,1.165878 -1.98199,2.467465 -3.241502,3.08112 -0.978646,0.476813 -2.961624,1.097526 -3.506244,1.097526 -0.206315,0 -0.292717,0.05554 -0.247201,0.158898 0.03849,0.0874 0.230382,0.530721 0.426435,0.98517 l 0.356459,0.826271 0.04154,4.036017 0.04154,4.036017 h -3.886579 -3.88658 z"
     id="path8"
     inkscape:connector-curvature="0" /><path
     style="opacity:1;vector-effect:none;fill:#f2f2f2;fill-opacity:1;stroke-width:0.01615915;stroke-linecap:butt;stroke-linejoin:miter;stroke-miterlimit:4;stroke-dasharray:none;stroke-dashoffset:0;stroke-opacity:1"
     d="m 11.084746,27.923399 v -1.974907 l -1.1122883,0.08175 C 7.0974276,26.241566 5.5311109,25.361696 3.9253911,22.633342 3.0348964,21.120261 2.2098087,20.012286 1.6866678,19.627055 1.2048,19.272219 1.2805606,19.091339 1.907926,19.0988 2.9633598,19.111351 4.0370373,19.803278 4.8580543,21 c 0.4470846,0.651674 1.2690644,1.539735 1.2690644,1.371086 0,-0.04113 0.1779094,0.09141 0.3953544,0.294533 0.5877714,0.549061 1.589025,0.795899 2.9027171,0.715604 1.1530838,-0.07048 1.5755168,-0.174779 1.4606458,-0.360644 -0.03868,-0.06259 -0.01612,-0.113799 0.05014,-0.113799 0.06626,0 0.160327,-0.214513 0.209037,-0.476695 0.04871,-0.262183 0.252832,-0.900856 0.453606,-1.419274 0.200773,-0.518417 0.340289,-0.982628 0.310035,-1.03158 -0.03025,-0.04895 -0.413159,-0.159465 -0.850902,-0.245586 C 9.1389208,19.356137 7.0892751,18.305047 6.0683399,17.174994 4.4600743,15.394836 3.9639198,13.539084 4.2129654,10.235396 4.4051267,7.6863008 4.764141,6.5653928 5.746941,5.4460455 L 6.1128374,5.0293124 5.9142944,4.3520179 C 5.680419,3.5541932 5.7251651,0.90784748 5.9804657,0.43855926 6.1770624,0.07717947 6.2416933,0.08007915 7.12016,0.48969201 7.6169244,0.72132409 8.1867549,1.1721099 8.940881,1.9300418 l 1.097661,1.1032002 0.481816,-0.2471867 c 0.765848,-0.3929034 2.24251,-0.5904628 4.441506,-0.5942195 2.295406,-0.00392 3.327578,0.1267966 4.380949,0.5548196 l 0.727065,0.2954329 0.5604,-0.6863884 c 0.663609,-0.8128002 1.61754,-1.58152605 2.40685,-1.93956166 0.771384,-0.34990382 0.841433,-0.33549033 1.035641,0.21309898 0.230438,0.65093128 0.226367,3.54388498 -0.0056,3.95684418 -0.141914,0.2526752 -0.141536,0.320042 0.0023,0.411189 0.09461,0.059953 0.124248,0.1098819 0.06586,0.1109525 -0.05839,0.00107 0.108197,0.2939672 0.370196,0.6508812 0.991953,1.3513091 1.403612,3.3988589 1.295109,6.4417269 -0.06854,1.922235 -0.275376,2.692121 -1.049118,3.905101 -0.61117,0.958119 -1.950174,2.138103 -3.014737,2.656706 -0.96086,0.468085 -2.95326,1.093294 -3.484082,1.093294 -0.372762,0 -0.372758,-0.0018 -0.0016,0.735158 0.51347,1.019486 0.587844,1.731424 0.587844,5.627031 v 3.680184 h -3.877119 -3.877118 z"
     id="path11"
     inkscape:connector-curvature="0" /><path
     style="opacity:1;vector-effect:none;fill:#e6e6e6;fill-opacity:1;stroke-width:0.01615915;stroke-linecap:butt;stroke-linejoin:miter;stroke-miterlimit:4;stroke-dasharray:none;stroke-dashoffset:0;stroke-opacity:1"
     d="m 11.084746,27.923399 v -1.974907 l -1.1122883,0.08175 C 7.0241281,26.246954 5.6034775,25.414869 3.7754238,22.400603 3.1636715,21.391889 2.4714407,20.437937 2.0380868,20.00641 1.6418735,19.611866 1.3449317,19.244995 1.3782161,19.191138 c 0.033284,-0.05385 0.250161,-0.09792 0.481948,-0.09792 1.0421055,0 2.2797939,0.79103 3.0043334,1.920127 0.4881563,0.760727 1.4943051,1.664505 2.2771714,2.04548 0.4706859,0.229056 0.8040188,0.280747 1.8456193,0.286206 1.2532418,0.0066 1.9874288,-0.09949 1.9494128,-0.28159 -0.01069,-0.05121 0.01465,-0.178909 0.0563,-0.283782 0.206233,-0.519214 0.873636,-2.500827 0.894351,-2.655453 0.01638,-0.122237 -0.329897,-0.264272 -1.124319,-0.461175 C 8.1267176,19.009607 6.3673625,17.867401 5.2266807,16.068733 4.3005882,14.608436 4.0095551,12.933713 4.2129654,10.235396 4.4051267,7.6863008 4.764141,6.5653928 5.746941,5.4460455 L 6.1128374,5.0293124 5.9142944,4.3520179 C 5.766719,3.8485906 5.7297569,3.2960595 5.7703095,2.1996498 5.8222578,0.79513912 5.9780401,0.15254231 6.2665817,0.15254231 c 0.4784232,0 1.6828268,0.78746686 2.5935879,1.69574759 0.559322,0.5577988 1.0982902,1.0300654 1.1977074,1.0494815 0.09942,0.019416 0.352137,-0.053322 0.5616,-0.1616394 0.664313,-0.3435299 2.237334,-0.5407 4.342387,-0.5442962 2.295406,-0.00392 3.327578,0.1267966 4.380949,0.5548196 l 0.727065,0.2954329 0.5604,-0.6863884 c 0.663609,-0.8128002 1.61754,-1.58152605 2.40685,-1.93956166 0.771384,-0.34990382 0.841433,-0.33549033 1.035641,0.21309898 0.230438,0.65093128 0.226367,3.54388498 -0.0056,3.95684418 -0.141914,0.2526752 -0.141536,0.320042 0.0023,0.411189 0.09461,0.059953 0.130901,0.1098819 0.08064,0.1109525 -0.05026,0.00107 0.136777,0.3276588 0.415643,0.7257517 0.940721,1.3429237 1.335171,3.363733 1.234501,6.3244734 -0.06694,1.968749 -0.267088,2.722109 -1.048738,3.947484 -0.61117,0.958119 -1.950174,2.138103 -3.014737,2.656706 -0.96086,0.468085 -2.95326,1.093294 -3.484082,1.093294 -0.373252,0 -0.373259,-0.0019 0.0028,0.740269 0.49275,0.972393 0.583407,1.858537 0.583407,5.702569 v 3.599535 h -3.877119 -3.877118 z"
     id="path13"
     inkscape:connector-curvature="0" /></svg>