<?xml version="1.0" standalone="no"?>
<!DOCTYPE svg PUBLIC "-//W3C//DTD SVG 20010904//EN"
 "http://www.w3.org/TR/2001/REC-SVG-20010904/DTD/svg10.dtd">
<svg version="1.0" xmlns="http://www.w3.org/2000/svg"
 width="128.000000pt" height="128.000000pt" viewBox="0 0 128.000000 128.000000"
 preserveAspectRatio="xMidYMid meet">

<g transform="translate(0.000000,128.000000) scale(0.100000,-0.100000)"
fill="#283E4A" stroke="none">
<path d="M458 1204 c-26 -8 -50 -20 -54 -26 -5 -7 -2 -9 8 -5 9 3 36 11 59 18
46 13 74 30 49 28 -8 0 -36 -7 -62 -15z"/>
<path d="M962 1120 c90 -59 163 -138 209 -223 18 -34 34 -56 37 -49 6 20 -56
119 -117 184 -57 62 -161 138 -190 138 -8 0 19 -23 61 -50z"/>
<path d="M472 1124 c-96 -32 -164 -76 -234 -152 -60 -65 -107 -153 -127 -236
-27 -113 -10 -269 40 -368 23 -46 25 -98 4 -98 -33 0 -55 -38 -55 -95 l0 -55
142 0 c129 0 148 -2 217 -27 66 -24 91 -27 186 -27 95 1 120 4 185 29 102 38
208 120 263 205 9 14 33 34 53 45 45 24 57 53 39 88 -11 21 -11 40 -2 97 41
265 -139 537 -398 605 -93 24 -225 19 -313 -11z m284 1 c245 -57 414 -266 414
-511 0 -77 -8 -134 -19 -134 -4 0 -47 29 -96 65 -49 36 -97 65 -105 65 -9 0
-63 34 -120 77 l-103 76 39 33 c22 19 46 31 55 29 16 -5 69 58 69 82 0 14
-214 173 -233 173 -23 0 -69 -67 -62 -90 4 -12 -4 -42 -19 -75 -30 -66 -135
-179 -159 -170 -20 8 -80 -71 -69 -91 13 -23 211 -164 230 -164 24 1 79 79 62
90 -18 11 24 105 42 94 44 -26 198 -146 198 -154 0 -6 46 -44 103 -86 56 -42
106 -80 111 -84 17 -17 -75 -127 -151 -179 l-33 -22 0 40 c0 43 -26 81 -55 81
-10 0 -15 16 -17 63 l-3 62 -324 3 c-217 1 -328 -1 -336 -8 -20 -17 -55 89
-62 185 -10 154 42 290 157 406 129 131 312 185 486 144z m12 -140 c56 -41
102 -78 102 -82 0 -5 -10 -20 -23 -35 l-22 -28 -108 80 c-70 52 -106 85 -101
93 12 20 37 47 44 47 4 0 53 -34 108 -75z m-65 -77 c45 -34 83 -62 85 -64 2
-1 -22 -26 -52 -56 -30 -31 -69 -84 -88 -122 l-34 -66 -86 63 -87 63 55 54
c34 34 67 80 87 122 18 37 33 67 35 67 2 1 40 -27 85 -61z m126 -239 c53 -39
97 -74 99 -78 1 -5 -5 -18 -15 -30 l-18 -22 -107 79 c-104 76 -107 80 -92 100
8 12 20 22 26 22 5 0 54 -32 107 -71z m-267 -54 l66 -49 -25 -33 c-17 -22 -30
-30 -37 -25 -6 5 -55 41 -109 81 -66 48 -95 76 -90 84 4 7 15 22 23 34 l14 22
46 -33 c25 -18 75 -54 112 -81z m503 -100 c57 -41 106 -83 109 -92 8 -21 -20
-63 -43 -63 -10 0 -65 35 -123 78 l-106 77 26 37 c15 21 29 38 30 38 2 0 50
-34 107 -75z m-247 -137 c7 -7 12 -34 12 -60 l0 -48 -325 0 -325 0 0 48 c0 26
5 53 12 60 17 17 609 17 626 0z m60 -140 c7 -7 12 -31 12 -55 l0 -43 -385 0
-385 0 0 43 c0 24 5 48 12 55 17 17 729 17 746 0z m-52 -127 c-21 -33 -277
-40 -346 -8 -33 15 -26 15 158 16 106 1 191 -3 188 -8z"/>
<path d="M222 1065 c-74 -68 -136 -163 -167 -252 -27 -80 -39 -143 -28 -143 5
0 14 28 20 62 20 106 84 219 174 309 90 90 90 107 1 24z"/>
<path d="M1234 740 c3 -14 6 -33 6 -42 0 -10 5 -18 11 -18 13 0 2 60 -13 75
-7 7 -9 2 -4 -15z"/>
<path d="M1132 251 c-41 -58 -124 -136 -172 -161 -14 -8 -20 -15 -13 -17 30
-10 182 128 219 199 26 51 10 40 -34 -21z"/>
</g>
</svg>
