<?xml version="1.0" standalone="no"?>
<!DOCTYPE svg PUBLIC "-//W3C//DTD SVG 20010904//EN"
 "http://www.w3.org/TR/2001/REC-SVG-20010904/DTD/svg10.dtd">
<svg version="1.0" xmlns="http://www.w3.org/2000/svg"
 width="662.000000pt" height="842.000000pt" viewBox="0 0 662.000000 842.000000"
 preserveAspectRatio="xMidYMid meet">

<g transform="translate(0.000000,842.000000) scale(0.100000,-0.100000)"
fill="#e6ecf0" stroke="none">
<path d="M3155 8369 c-269 -35 -479 -133 -651 -304 -268 -264 -404 -662 -404
-1178 0 -156 -1 -165 -20 -170 -12 -3 -20 -14 -20 -26 0 -17 -6 -20 -39 -18
-46 1 -85 -17 -98 -47 -6 -12 -11 -158 -11 -338 -2 -285 0 -324 18 -394 11
-42 31 -97 45 -122 14 -25 28 -63 31 -86 21 -150 70 -221 145 -214 45 4 38 20
109 -232 52 -183 103 -265 297 -477 79 -86 83 -92 61 -98 -63 -19 -191 -82
-265 -131 l-84 -54 -82 0 c-198 0 -341 -81 -397 -226 -18 -44 -24 -84 -26
-159 -2 -79 -8 -113 -28 -160 -45 -112 -60 -183 -60 -300 0 -148 22 -204 113
-296 36 -36 75 -72 86 -80 12 -8 70 -74 130 -147 l108 -133 126 6 c81 5 142 3
171 -4 25 -6 102 -14 172 -18 99 -5 128 -9 133 -21 13 -34 16 -162 7 -232 -11
-72 -10 -76 13 -100 l24 -25 -39 -140 c-21 -77 -43 -183 -49 -235 -11 -95 -50
-246 -183 -710 -126 -444 -234 -793 -265 -852 -12 -25 -11 -34 17 -94 16 -37
30 -73 30 -80 0 -16 -40 -45 -157 -114 l-94 -55 -54 -103 -55 -102 33 -20 c40
-25 32 -25 157 6 93 23 109 31 140 64 41 44 117 100 137 100 7 0 13 -9 13 -19
0 -17 5 -16 65 12 l65 31 0 77 0 77 78 63 79 64 53 185 c74 257 196 616 274
802 98 234 243 518 265 518 13 0 129 -202 195 -340 140 -292 322 -807 416
-1175 8 -33 24 -51 90 -104 l80 -64 0 -76 0 -77 65 -32 c61 -30 65 -31 65 -12
0 11 5 20 11 20 17 0 68 -38 124 -90 46 -44 59 -50 158 -75 106 -28 107 -28
147 -10 22 10 39 21 38 24 -2 4 -27 52 -57 109 l-55 103 -75 40 c-93 48 -171
105 -171 123 0 7 13 42 29 76 l28 63 -34 96 c-120 333 -404 1338 -422 1491
-13 104 -84 381 -107 418 -14 21 -13 26 6 57 19 31 21 40 11 86 -21 97 -26 94
177 91 126 -2 201 -9 261 -22 l84 -18 18 21 c38 45 177 244 204 292 16 28 56
79 89 115 168 180 224 341 197 563 -11 92 -11 110 4 162 26 87 17 222 -19 297
-32 68 -115 153 -184 191 -67 36 -190 67 -269 67 -61 0 -66 2 -128 49 -79 61
-161 109 -237 141 l-56 23 100 111 c130 144 206 247 232 310 12 29 44 120 71
203 l50 152 36 -6 c76 -11 135 57 154 177 4 25 25 81 46 125 57 119 67 178 75
455 13 402 14 388 -19 416 -21 18 -40 24 -73 24 -24 0 -44 5 -44 10 0 6 -9 10
-20 10 -19 0 -20 5 -14 178 29 804 -274 1346 -829 1487 -171 43 -387 56 -562
34z m477 -48 c557 -127 868 -658 868 -1483 l0 -150 -22 5 c-339 83 -658 89
-915 16 -50 -15 -116 -24 -184 -26 -96 -4 -121 -1 -248 31 -358 89 -637 95
-958 21 -23 -5 -23 -4 -23 102 0 60 7 166 15 237 87 742 419 1169 982 1261
121 20 368 13 485 -14z m-691 -1647 c30 -9 57 -21 61 -28 7 -10 12 -126 6
-126 -2 0 -25 9 -53 19 -45 17 -50 23 -61 62 -6 24 -16 54 -23 67 -15 27 -6
28 70 6z m1306 1 c48 -14 51 -18 62 -59 20 -79 17 -85 -30 -74 -22 6 -43 18
-46 27 -3 9 -16 40 -29 69 -12 28 -19 52 -15 52 4 0 30 -7 58 -15z m-2213 -36
c23 -18 27 -28 24 -61 -2 -29 2 -42 15 -49 14 -8 17 -25 16 -102 0 -51 -2 -87
-4 -82 -2 6 -10 34 -20 63 -20 68 -55 122 -77 122 -10 0 -18 -2 -18 -4 0 -2
-3 -11 -6 -20 -4 -10 -1 -16 8 -16 8 0 20 -10 27 -22 9 -19 6 -55 -19 -200
-16 -97 -31 -193 -31 -215 -1 -37 -1 -38 -9 -8 -13 52 -11 136 7 242 16 93 16
111 3 205 -18 122 -16 142 13 156 32 16 41 14 71 -9z m122 -4 c16 -13 17 -16
4 -25 -20 -13 -23 -13 -45 3 -19 14 -13 37 9 37 7 0 21 -7 32 -15z m2234 -53
c14 -30 30 -82 26 -82 -2 0 -17 5 -34 11 -26 9 -32 17 -37 52 -4 23 -9 50 -12
60 -5 18 -3 18 20 3 13 -9 30 -29 37 -44z m-1309 20 c26 -23 31 -36 36 -91 l6
-63 -42 27 c-39 26 -41 30 -41 76 0 26 -3 54 -6 63 -9 24 12 19 47 -12z m1609
13 c13 -15 11 -52 -8 -190 -4 -27 -3 -113 2 -192 6 -93 5 -160 -1 -195 l-10
-53 -2 55 c0 30 -10 109 -21 175 -11 66 -20 142 -20 168 0 52 15 91 31 82 5
-4 9 3 9 14 0 29 -18 36 -42 15 -27 -25 -47 -64 -75 -149 -23 -70 -23 -70 -18
-21 3 27 5 70 5 96 0 43 3 48 26 54 26 7 26 9 20 63 -5 45 -3 60 10 74 21 23
77 25 94 4z m-151 -11 c18 -13 20 -18 10 -25 -20 -12 -33 -11 -55 6 -16 13
-17 16 -4 25 20 13 22 13 49 -6z m-1580 -95 l48 -20 -10 -47 c-5 -26 -11 -48
-12 -50 -1 -2 -19 8 -39 22 -20 13 -41 26 -46 28 -8 3 -2 88 7 88 2 0 26 -9
52 -21z m1339 5 c19 -6 22 -13 22 -55 0 -27 -2 -49 -4 -49 -1 0 -17 5 -35 11
-28 10 -31 15 -31 55 0 46 5 49 48 38z m-2164 -124 c24 -137 61 -280 89 -338
53 -111 277 -188 471 -163 149 20 258 70 327 149 29 33 138 242 169 326 14 36
15 29 15 -125 0 -109 5 -171 12 -184 11 -17 12 -12 13 35 0 30 -5 93 -10 140
-8 64 -7 102 2 155 13 67 14 70 51 84 53 20 105 6 133 -36 27 -40 38 -164 23
-272 -6 -43 -9 -93 -7 -112 5 -50 32 97 33 178 0 33 3 59 8 56 4 -2 7 -10 7
-18 0 -25 89 -190 126 -234 47 -55 122 -103 205 -132 114 -40 367 -26 501 28
41 16 97 83 124 149 9 22 32 95 50 164 41 150 39 123 -12 -219 -53 -353 -67
-415 -162 -695 l-87 -258 -187 -198 c-103 -109 -244 -250 -313 -313 l-126
-115 -87 -8 c-48 -4 -169 -4 -269 -1 l-182 6 -94 69 c-208 154 -426 361 -539
512 -52 69 -61 88 -112 255 -30 99 -68 234 -85 300 -62 252 -150 971 -113 930
5 -6 17 -57 26 -115z m2259 89 c30 -16 37 -28 37 -71 0 -64 -7 -71 -46 -42
-30 24 -34 31 -34 75 0 51 6 57 43 38z m-1315 -35 c32 -25 34 -30 28 -70 -3
-23 -11 -57 -18 -74 l-13 -30 -36 48 c-28 38 -34 53 -28 73 4 13 10 36 13 52
8 33 11 33 54 1z m-1029 -99 c11 -36 25 -100 30 -143 9 -74 9 -82 -14 -127
-17 -32 -25 -64 -24 -94 l1 -46 9 38 c11 45 26 77 38 77 5 0 14 -28 19 -62 17
-98 24 -158 18 -158 -17 0 -36 67 -37 132 l0 73 -15 -45 c-9 -25 -16 -65 -17
-90 -3 -61 -18 -65 -38 -9 -39 105 -43 256 -9 404 5 22 10 57 10 78 0 20 2 37
5 37 2 0 13 -29 24 -65z m2583 -338 c-6 -42 -23 -105 -36 -139 -14 -34 -24
-64 -21 -66 2 -2 17 15 34 39 38 52 39 46 3 -34 -16 -34 -27 -68 -24 -75 6
-18 -16 -97 -41 -147 -26 -54 -56 -85 -81 -85 -43 0 -44 10 -17 145 l26 130
38 0 c36 0 47 8 27 20 -6 4 -4 17 5 35 19 36 19 82 1 140 l-15 45 0 -70 c-1
-57 -6 -77 -27 -110 l-25 -40 5 40 c4 22 9 66 13 98 3 31 9 57 14 57 4 0 11
12 17 28 8 26 9 25 30 -33 l20 -60 1 41 c1 24 -8 59 -22 86 l-23 45 18 99 c9
54 25 119 35 144 l17 45 20 -150 c16 -127 18 -162 8 -228z m-2592 -194 c0 -18
11 -16 25 4 12 17 14 17 34 -1 12 -11 21 -15 21 -11 0 5 3 6 6 2 9 -8 52 -276
46 -282 -15 -15 -62 -3 -81 21 -30 38 -62 131 -66 189 -2 28 -13 72 -24 98
-12 27 -21 51 -21 55 0 12 59 -63 60 -75z m1826 -1249 c-29 -109 -56 -131
-216 -174 -69 -18 -174 -50 -235 -71 l-109 -38 -123 39 c-134 43 -253 70 -306
70 -52 0 -114 74 -132 158 -3 17 -4 32 -1 32 4 0 32 -21 64 -47 31 -26 90 -68
130 -94 88 -58 116 -63 367 -63 258 -1 279 3 373 74 42 32 104 83 137 113 33
30 61 54 62 53 1 -1 -4 -24 -11 -52z m-1477 -791 c50 -25 56 -32 59 -63 2 -19
1 -53 -3 -77 l-6 -42 -62 -15 c-87 -20 -27 -20 88 0 73 13 117 15 230 8 261
-16 506 -11 633 15 137 27 293 77 390 124 l71 35 61 -14 c56 -13 129 -43 157
-66 9 -7 8 -17 -2 -42 -8 -18 -19 -63 -26 -100 -9 -54 -16 -69 -33 -75 -11 -5
-84 -44 -161 -86 -180 -100 -557 -288 -615 -308 -78 -26 -229 -41 -415 -41
-146 -1 -196 3 -265 19 -67 16 -113 19 -218 18 l-132 -3 -118 114 c-64 63
-133 139 -152 169 -19 31 -47 61 -62 68 -38 16 -36 41 12 136 46 92 132 182
205 214 125 55 268 60 364 12z m146 -49 c25 -4 60 -23 93 -50 l53 -43 -33 -5
c-18 -3 -58 -8 -89 -11 l-55 -6 -18 53 c-9 29 -20 59 -23 67 -4 9 0 11 13 8
11 -3 37 -9 59 -13z m1870 -19 c161 -42 296 -168 320 -298 7 -34 4 -40 -45
-92 -29 -30 -72 -67 -96 -82 -36 -23 -49 -41 -78 -106 -41 -90 -107 -205 -139
-243 l-23 -26 -141 15 c-112 12 -150 13 -180 4 -23 -7 -108 -12 -213 -11
l-175 0 -105 43 c-163 66 -290 123 -290 130 0 3 51 29 112 56 133 60 345 174
483 261 88 55 112 65 190 80 50 9 137 17 194 18 l103 1 -58 18 c-32 10 -92 20
-132 24 -40 3 -75 9 -77 13 -10 17 -15 146 -6 159 14 22 138 50 221 50 42 1
102 -6 135 -14z"/>
<path d="M3443 5882 c8 -39 48 -134 54 -128 3 2 -5 35 -18 73 -25 76 -45 108
-36 55z"/>
<path d="M3170 5845 c-25 -58 -37 -104 -23 -90 15 16 56 125 50 132 -4 3 -16
-15 -27 -42z"/>
<path d="M3565 5835 c24 -64 45 -140 45 -162 0 -30 -16 -62 -44 -85 -19 -16
-19 -17 -3 -18 10 0 32 13 48 29 47 48 38 127 -26 218 -15 21 -24 29 -20 18z"/>
<path d="M3050 5793 c-88 -99 -75 -195 30 -232 40 -14 38 -3 -10 44 -51 50
-54 94 -10 172 17 29 28 53 26 53 -2 0 -18 -17 -36 -37z"/>
<path d="M3132 5718 c5 -15 52 -43 88 -52 24 -7 25 -7 5 9 -35 29 -98 58 -93
43z"/>
<path d="M3442 5688 c-18 -11 -31 -22 -29 -25 7 -6 73 23 81 36 11 17 -16 11
-52 -11z"/>
<path d="M3059 5680 c-13 -10 -21 -19 -18 -20 9 0 69 31 69 36 0 11 -30 2 -51
-16z"/>
<path d="M3467 5650 c-27 -10 -54 -23 -60 -29 -7 -5 -42 -11 -77 -12 -52 -1
-76 4 -120 25 -68 32 -105 33 -120 5 -16 -29 -8 -32 38 -18 37 11 44 10 95
-20 72 -41 160 -44 204 -7 46 38 69 47 96 37 30 -12 40 -5 26 20 -12 23 -21
23 -82 -1z"/>
<path d="M3362 5263 l-44 -26 -44 21 c-61 30 -80 27 -24 -3 56 -30 70 -30 123
-4 37 20 47 21 87 10 52 -13 150 -59 150 -69 0 -4 -118 -7 -262 -7 -145 0
-286 -3 -315 -6 -33 -4 -50 -2 -46 4 8 13 103 54 158 68 25 6 48 16 51 21 12
20 -152 -33 -213 -68 -24 -14 -43 -31 -43 -38 0 -23 80 -135 113 -160 64 -47
87 -53 243 -59 142 -6 153 -5 200 17 27 13 66 42 87 66 37 40 76 111 77 137 0
16 -83 69 -144 92 -89 33 -107 33 -154 4z m-42 -106 c25 1 70 2 100 4 55 3
210 -10 210 -18 0 -30 -84 -132 -136 -164 -32 -19 -39 -20 -123 -10 -49 6
-121 8 -158 5 -53 -5 -76 -3 -100 9 -33 18 -86 75 -116 126 l-18 31 38 1 c21
0 54 7 73 14 26 11 55 13 110 7 41 -3 95 -6 120 -5z"/>
<path d="M3195 4845 c-37 -12 -29 -13 105 -13 134 0 142 1 105 13 -22 8 -69
13 -105 13 -36 0 -83 -5 -105 -13z"/>
</g>
</svg>
